<svg width="43" height="43" viewBox="0 0 43 43" fill="none" xmlns="http://www.w3.org/2000/svg">
<g clip-path="url(#clip0_28_4357)">
<path d="M31.9819 13.3206V6.66143C31.9819 5.92592 31.3853 5.32959 30.6493 5.32959H29.3168V1.33408C29.3168 0.598573 28.7202 0.002243 27.9843 0.002243C26.0977 0.002243 23.2087 -0.142261 19.8172 1.88846C17.709 1.26125 16.2179 1.33408 14.659 1.33408C13.923 1.33408 13.3264 1.93041 13.3264 2.66592V5.32959H11.9939C11.2579 5.32959 10.6614 5.92592 10.6614 6.66143V13.3206C10.6614 18.7447 14.7377 23.2348 19.9891 23.8922V41.2892C19.9891 42.0247 20.5856 42.621 21.3216 42.621C22.0576 42.621 22.6542 42.0247 22.6542 41.2892V36.6278H24.6529C28.6941 36.6278 31.9819 33.3417 31.9819 29.3027V27.3049C31.9819 26.5694 31.3853 25.9731 30.6493 25.9731H27.318C25.5478 25.9731 23.9222 26.6036 22.6542 27.6518V23.8916C27.8977 23.2426 31.9819 18.7747 31.9819 13.3206ZM29.3168 13.3206C29.3168 15.6909 28.268 17.8316 26.6104 19.2994C26.6366 19.0857 26.6517 18.8686 26.6517 18.648C26.6517 15.2752 25.3902 12.1918 23.3148 9.84277C25.0743 8.64279 27.1604 7.99327 29.3168 7.99327V13.3206ZM26.6517 2.66592V5.59829C26.4055 5.6484 26.161 5.70559 25.9184 5.76943C25.054 4.80227 24.0681 3.97828 22.9916 3.31244C24.1552 2.88725 25.3903 2.66592 26.6517 2.66592ZM15.9915 3.99776C18.6388 3.99776 21.2097 4.96392 23.2091 6.80993C22.5492 7.1503 21.9165 7.5471 21.3177 7.99701C19.7684 6.83282 17.9581 5.99793 15.9915 5.59737V3.99776ZM13.3264 13.3206V7.99327C19.2045 7.99327 23.9867 12.7729 23.9867 18.648C23.9867 20.1363 22.757 21.349 21.2516 21.3104C16.5702 21.1949 13.3264 17.4775 13.3264 13.3206ZM27.318 28.6367H29.3168V29.3027C29.3168 31.8729 27.2247 33.9641 24.6529 33.9641H22.6542V33.2982C22.6542 30.7279 24.7464 28.6367 27.318 28.6367Z" fill="white"/>
</g>
<defs>
<clipPath id="clip0_28_4357">
<rect width="42.6432" height="42.621" fill="white"/>
</clipPath>
</defs>
</svg>
